<svg width="21" height="21" viewBox="0 0 21 21" fill="none" xmlns="http://www.w3.org/2000/svg">
<g clip-path="url(#clip0_578_121)">
<path d="M20.5 10.4688C20.5 4.94594 16.0228 0.46875 10.5 0.46875C4.97719 0.46875 0.5 4.94586 0.5 10.4688C0.5 15.46 4.15687 19.5971 8.9375 20.3473V13.3594H6.39844V10.4688H8.9375V8.26563C8.9375 5.75938 10.4305 4.375 12.7146 4.375C13.8088 4.375 14.9531 4.57031 14.9531 4.57031V7.03125H13.6922C12.4498 7.03125 12.0625 7.80211 12.0625 8.59297V10.4688H14.8359L14.3926 13.3594H12.0625V20.3473C16.8431 19.5971 20.5 15.4601 20.5 10.4688Z" fill="#1877F2"/>
<path d="M14.3926 13.3594L14.8359 10.4688H12.0625V8.59297C12.0625 7.80203 12.4499 7.03125 13.6922 7.03125H14.9531V4.57031C14.9531 4.57031 13.8088 4.375 12.7146 4.375C10.4305 4.375 8.9375 5.75938 8.9375 8.26563V10.4688H6.39844V13.3594H8.9375V20.3473C9.45439 20.4283 9.9768 20.4689 10.5 20.4688C11.0232 20.4689 11.5456 20.4283 12.0625 20.3473V13.3594H14.3926Z" fill="white"/>
</g>
<defs>
<clipPath id="clip0_578_121">
<rect width="20" height="20" fill="white" transform="translate(0.5 0.46875)"/>
</clipPath>
</defs>
</svg>
