<svg width="81" height="81" fill="none" xmlns="http://www.w3.org/2000/svg"><path fill-rule="evenodd" clip-rule="evenodd" d="M20.39 35.947A18.29 18.29 0 0 1 19 36C9.059 36 1 27.941 1 18S9.059 0 19 0s18 8.059 18 18c0 .468-.018.932-.053 1.39a20.855 20.855 0 0 0-5.956 2.144C30.746 15.123 25.471 10 19 10c-6.627 0-12 5.373-12 12s5.373 12 12 12c.652 0 1.292-.052 1.916-.152-.21.685-.386 1.386-.525 2.1Zm4.738 17.804A20.919 20.919 0 0 1 20 40c0-1.386.134-2.742.39-4.053 8.833-.675 15.882-7.724 16.557-16.556A21.105 21.105 0 0 1 41 19c5.26 0 10.067 1.933 13.75 5.128L25.129 53.75Zm2.121 2.121L5.621 77.5H15.5a1.5 1.5 0 0 1 0 3H2A1.5 1.5 0 0 1 .5 79V65.5a1.5 1.5 0 0 1 3 0v9.879L25.128 53.75a21.134 21.134 0 0 0 2.121 2.121Zm17.804 4.737C43.742 60.866 42.387 61 41 61a20.919 20.919 0 0 1-13.75-5.128L56.871 26.25A20.919 20.919 0 0 1 62 40c0 1.386-.134 2.742-.39 4.053-8.833.675-15.882 7.724-16.557 16.556Zm5.956-2.143a20.855 20.855 0 0 1-5.956 2.143A18.29 18.29 0 0 0 45 62c0 9.941 8.059 18 18 18s18-8.059 18-18-8.059-18-18-18c-.468 0-.932.018-1.39.053-.14.713-.316 1.414-.526 2.1C55.367 47.068 51 52.024 51 58c0 .156.003.311.009.466Zm0 0a21.057 21.057 0 0 0 10.075-12.314c.624-.1 1.264-.152 1.916-.152 6.627 0 12 5.373 12 12s-5.373 12-12 12c-6.471 0-11.746-5.123-11.991-11.534Zm5.863-32.217a21.134 21.134 0 0 0-2.121-2.121L75.379 3.5H65.5a1.5 1.5 0 0 1 0-3H79A1.5 1.5 0 0 1 80.5 2v13.5a1.5 1.5 0 0 1-3 0V5.621L56.872 26.25Zm-35.956 7.599A21.056 21.056 0 0 1 30.99 21.534c.006.155.009.31.009.466 0 5.976-4.368 10.93-10.084 11.848Z" fill="url(#a)"/><defs><radialGradient id="a" cx="0" cy="0" r="1" gradientUnits="userSpaceOnUse" gradientTransform="rotate(44.644) scale(113.846)"><stop stop-color="#E71414"/><stop offset="1" stop-color="#085BA8"/></radialGradient></defs></svg>