<svg width="30" height="30" viewBox="0 0 30 30" fill="none" xmlns="http://www.w3.org/2000/svg">
<g clip-path="url(#clip0_529_320)">
<path d="M14.9741 0C7.08313 0 0.618906 6.07089 0.00505066 13.7854L8.05593 17.1067C8.75893 16.6256 9.59382 16.3683 10.4488 16.3693C10.5287 16.3693 10.6076 16.3715 10.6854 16.3758L14.2662 11.1971V11.1246C14.2662 8.00838 16.8071 5.47251 19.9306 5.47251C23.054 5.47251 25.595 8.00838 25.595 11.1246C25.595 14.2406 23.054 16.7775 19.9306 16.7775C19.8873 16.7775 19.8451 16.7765 19.802 16.7754L14.6952 20.4098C14.6985 20.4773 14.7006 20.5446 14.7006 20.6108C14.7006 22.951 12.793 24.8544 10.4488 24.8544C8.39097 24.8544 6.66925 23.3882 6.2802 21.4476L0.521673 19.0719C2.30502 25.363 8.09799 29.9752 14.9741 29.9752C23.2703 29.9752 29.9949 23.2642 29.9949 14.9876C29.9949 6.71004 23.2703 0 14.9741 0ZM9.41813 22.7412L7.57316 21.9804C7.89966 22.66 8.46595 23.2285 9.2171 23.5406C10.8404 24.2159 12.7123 23.4476 13.389 21.8264C13.7166 21.0469 13.7185 20.1709 13.3944 19.39C13.0701 18.6035 12.4573 17.99 11.6716 17.663C10.8902 17.3393 10.0537 17.351 9.31867 17.6278L11.2253 18.4143C12.4227 18.9124 12.989 20.2844 12.4897 21.4792C11.9915 22.6739 10.6156 23.2392 9.41813 22.7412ZM23.7052 11.1246C23.7052 9.0483 22.0115 7.35776 19.931 7.35776C17.8494 7.35776 16.1558 9.0483 16.1558 11.1246C16.1558 13.2009 17.8494 14.8904 19.931 14.8904C22.0115 14.8904 23.7052 13.2009 23.7052 11.1246ZM17.1015 11.1182C17.1015 9.55587 18.3714 8.28961 19.9365 8.28961C21.5025 8.28961 22.7724 9.55587 22.7724 11.1182C22.7724 12.6805 21.5025 13.9469 19.9364 13.9469C18.3714 13.9469 17.1014 12.6805 17.1014 11.1183L17.1015 11.1182Z" fill="white"/>
</g>
<defs>
<clipPath id="clip0_529_320">
<rect width="30" height="30" fill="white"/>
</clipPath>
</defs>
</svg>
