<svg width="20" height="21" viewBox="0 0 20 21" fill="none" xmlns="http://www.w3.org/2000/svg">
<path d="M10 1C7.34784 1 4.8043 2.00089 2.92893 3.78249C1.05357 5.56408 0 7.98044 0 10.5C0 13.0196 1.05357 15.4359 2.92893 17.2175C4.8043 18.9991 7.34784 20 10 20C12.6522 20 15.1957 18.9991 17.0711 17.2175C18.9464 15.4359 20 13.0196 20 10.5C20 7.98044 18.9464 5.56408 17.0711 3.78249C15.1957 2.00089 12.6522 1 10 1Z" fill="#1976D2"/>
<path d="M15.9657 7.5552C15.9906 7.47467 16.0025 7.4 15.9993 7.33333C15.9912 7.14027 15.8563 7 15.5389 7H14.1208C13.7628 7 13.5976 7.21333 13.5012 7.4272C13.5012 7.4272 12.6172 9.21867 11.5983 10.4C11.2679 10.7419 11.1 10.7333 10.9212 10.7333C10.8254 10.7333 10.5832 10.6192 10.5832 10.3061V7.5408C10.5832 7.17067 10.4895 7 10.1867 7H7.66856C7.44811 7 7.33328 7.17067 7.33328 7.34187C7.33328 7.6976 7.81969 7.78293 7.87493 8.77973V10.712C7.87493 11.1813 7.79206 11.2667 7.61331 11.2667C7.13124 11.2667 6.18225 9.66667 5.54688 7.5696C5.4093 7.1568 5.27172 7 4.91368 7H3.48208C3.06879 7 3 7.19947 3 7.4128C3 7.79733 3.325 9.87627 5.09893 12.2667C6.38537 14 8.08022 15 9.58062 15C10.4895 15 10.5827 14.7723 10.5827 14.4165V12.8315C10.5832 12.4043 10.6824 12.3333 10.9716 12.3333C11.178 12.3333 11.5988 12.4667 12.4113 13.4C13.3484 14.4763 13.5185 15 14.0558 15H15.4739C15.8032 15 15.9922 14.864 15.9998 14.6C16.0015 14.5328 15.9917 14.4576 15.9695 14.3739C15.8644 14.0667 15.3823 13.3157 14.7811 12.6C14.448 12.2037 14.1192 11.8112 13.9681 11.5979C13.8668 11.4587 13.8283 11.3605 13.8332 11.2667C13.8381 11.168 13.8901 11.0741 13.9681 10.9429C13.954 10.9429 15.787 8.40907 15.9657 7.5552Z" fill="white"/>
</svg>
