<svg width="36" height="36" viewBox="0 0 36 36" fill="none" xmlns="http://www.w3.org/2000/svg">
<path d="M11.955 24L7.5 28.5C7.005 28.95 6.345 29.25 5.625 29.25C4.92881 29.25 4.26113 28.9734 3.76884 28.4812C3.27656 27.9889 3 27.3212 3 26.625V26.25L4.5 15.18C4.65121 13.4934 5.42751 11.9244 6.67644 10.7809C7.92537 9.63743 9.55668 9.00222 11.25 9H24.75C28.29 9 31.185 11.715 31.5 15.18L33 26.25V26.625C33 27.3212 32.7234 27.9889 32.2312 28.4812C31.7389 28.9734 31.0712 29.25 30.375 29.25C29.655 29.25 28.995 28.95 28.5 28.5L24.045 24H11.955ZM10.5 12V15H7.5V16.5H10.5V19.5H12V16.5H15V15H12V12H10.5ZM24.75 12C24.4516 12 24.1655 12.1185 23.9545 12.3295C23.7435 12.5405 23.625 12.8266 23.625 13.125C23.625 13.4234 23.7435 13.7095 23.9545 13.9205C24.1655 14.1315 24.4516 14.25 24.75 14.25C25.0484 14.25 25.3345 14.1315 25.5455 13.9205C25.7565 13.7095 25.875 13.4234 25.875 13.125C25.875 12.8266 25.7565 12.5405 25.5455 12.3295C25.3345 12.1185 25.0484 12 24.75 12ZM22.125 14.625C21.8266 14.625 21.5405 14.7435 21.3295 14.9545C21.1185 15.1655 21 15.4516 21 15.75C21 16.0484 21.1185 16.3345 21.3295 16.5455C21.5405 16.7565 21.8266 16.875 22.125 16.875C22.4234 16.875 22.7095 16.7565 22.9205 16.5455C23.1315 16.3345 23.25 16.0484 23.25 15.75C23.25 15.4516 23.1315 15.1655 22.9205 14.9545C22.7095 14.7435 22.4234 14.625 22.125 14.625ZM27.375 14.625C27.0766 14.625 26.7905 14.7435 26.5795 14.9545C26.3685 15.1655 26.25 15.4516 26.25 15.75C26.25 16.0484 26.3685 16.3345 26.5795 16.5455C26.7905 16.7565 27.0766 16.875 27.375 16.875C27.6734 16.875 27.9595 16.7565 28.1705 16.5455C28.3815 16.3345 28.5 16.0484 28.5 15.75C28.5 15.4516 28.3815 15.1655 28.1705 14.9545C27.9595 14.7435 27.6734 14.625 27.375 14.625ZM24.75 17.25C24.4516 17.25 24.1655 17.3685 23.9545 17.5795C23.7435 17.7905 23.625 18.0766 23.625 18.375C23.625 18.6734 23.7435 18.9595 23.9545 19.1705C24.1655 19.3815 24.4516 19.5 24.75 19.5C25.0484 19.5 25.3345 19.3815 25.5455 19.1705C25.7565 18.9595 25.875 18.6734 25.875 18.375C25.875 18.0766 25.7565 17.7905 25.5455 17.5795C25.3345 17.3685 25.0484 17.25 24.75 17.25Z" fill="white"/>
</svg>
