<svg width="36" height="36" viewBox="0 0 36 36" fill="none" xmlns="http://www.w3.org/2000/svg">
<path d="M16.5 21H13.5C13.5 17.4196 14.9223 13.9858 17.4541 11.4541C19.9858 8.92232 23.4196 7.5 27 7.5V10.5C21.195 10.5 16.5 15.195 16.5 21ZM27 16.5V13.5C22.86 13.5 19.5 16.86 19.5 21H22.5C22.5 18.51 24.51 16.5 27 16.5ZM10.5 6C10.5 4.335 9.165 3 7.5 3C5.835 3 4.5 4.335 4.5 6C4.5 7.665 5.835 9 7.5 9C9.165 9 10.5 7.665 10.5 6ZM17.175 6.75H14.175C14.0032 7.79887 13.4635 8.75229 12.6527 9.43945C11.8419 10.1266 10.8128 10.5026 9.75 10.5H5.25C4.005 10.5 3 11.505 3 12.75V16.5H12V13.11C13.3886 12.6697 14.6182 11.8331 15.5376 10.7031C16.4571 9.57317 17.0262 8.19913 17.175 6.75ZM28.5 25.5C30.165 25.5 31.5 24.165 31.5 22.5C31.5 20.835 30.165 19.5 28.5 19.5C26.835 19.5 25.5 20.835 25.5 22.5C25.5 24.165 26.835 25.5 28.5 25.5ZM30.75 27H26.25C24 27 22.185 25.38 21.825 23.25H18.825C19.125 26.25 21.21 28.725 24 29.61V33H33V29.25C33 28.005 31.995 27 30.75 27Z" fill="white"/>
</svg>
