<svg width="30" height="24" viewBox="0 0 30 24" fill="none" xmlns="http://www.w3.org/2000/svg">
<g clip-path="url(#clip0_529_329)">
<path d="M25.4109 2.28659C23.4439 1.36621 21.3628 0.712248 19.2229 0.34198C18.9564 0.823884 18.6449 1.47205 18.4302 1.9877C16.1229 1.64077 13.8369 1.64077 11.5721 1.9877C11.3574 1.47216 11.039 0.823884 10.77 0.34198C8.62792 0.712419 6.54513 1.36805 4.57714 2.29139C0.660978 8.20934 -0.400665 13.9801 0.130098 19.6692C2.72755 21.6089 5.24475 22.7873 7.71954 23.5583C8.33458 22.7125 8.87827 21.8171 9.34498 20.8812C8.45642 20.5429 7.59982 20.126 6.78537 19.6355C6.9997 19.4766 7.20898 19.3111 7.41291 19.1391C12.3482 21.4475 17.7106 21.4475 22.5871 19.1391C22.7919 19.3099 23.0011 19.4755 23.2145 19.6355C22.3988 20.1273 21.5406 20.545 20.6502 20.8837C21.1196 21.8233 21.6623 22.7197 22.2757 23.5607C24.7528 22.7897 27.2723 21.6114 29.8698 19.6692C30.4926 13.0742 28.8059 7.35625 25.4109 2.28647V2.28659ZM10.0174 16.1705C8.53583 16.1705 7.32082 14.7874 7.32082 13.1031C7.32082 11.4189 8.50994 10.0334 10.0174 10.0334C11.525 10.0334 12.7399 11.4164 12.714 13.1031C12.7163 14.7874 11.525 16.1705 10.0174 16.1705ZM19.9825 16.1705C18.5009 16.1705 17.286 14.7874 17.286 13.1031C17.286 11.4189 18.475 10.0334 19.9825 10.0334C21.4901 10.0334 22.705 11.4164 22.6791 13.1031C22.6791 14.7874 21.4901 16.1705 19.9825 16.1705Z" fill="#5865F2"/>
</g>
<defs>
<clipPath id="clip0_529_329">
<rect width="30" height="23.3161" fill="white" transform="translate(0 0.34198)"/>
</clipPath>
</defs>
</svg>
