<svg width="30" height="30" viewBox="0 0 30 30" fill="none" xmlns="http://www.w3.org/2000/svg">
<path fill-rule="evenodd" clip-rule="evenodd" d="M25.3802 0H4.22277C2.50788 0 1.875 0.632881 1.875 2.34857V23.0509C1.875 23.2451 1.88283 23.4254 1.89998 23.5926C1.93902 23.9671 1.94637 24.3299 2.29467 24.7431C2.3287 24.7836 2.68429 25.0482 2.68429 25.0482C2.87556 25.142 3.00617 25.2111 3.22189 25.2979L13.6401 29.6628C14.1809 29.9107 14.4071 30.0074 14.7999 29.9996V29.9996C14.8004 29.9996 14.8009 29.9996 14.8014 29.9996C14.802 29.9996 14.8025 29.9996 14.803 29.9996V29.9996C15.1958 30.0074 15.422 29.9107 15.9629 29.6628L26.3811 25.2979C26.5968 25.2111 26.7274 25.142 26.9187 25.0482C26.9187 25.0482 27.2743 24.7836 27.3083 24.7431C27.6566 24.3299 27.6639 23.9671 27.7029 23.5926C27.7201 23.4254 27.728 23.2451 27.728 23.0509V2.34857C27.728 0.632881 27.0951 0 25.3802 0Z" fill="#2F2D2E"/>
<path fill-rule="evenodd" clip-rule="evenodd" d="M8.92975 21.3531L8.96794 21.3245L9.00106 21.2959V21.2481V21.2004V21.1526V21.1096V21.0619V21.0142V20.9664V20.9186V20.8709V20.8279V20.7802V20.7324V20.6847V20.6369V20.5891V20.5413V20.4985V20.4506V20.4029V20.3551V20.3074V20.2596V20.2119V20.169V20.1211V20.0734V20.0256V19.9779V19.9301V19.8871V19.8394V19.7916V19.7442H8.95356H8.90613H8.85838H8.81094H8.76344H8.71594H8.66819H8.62069H8.57325H8.52575H8.478H8.43056H8.38313H8.33556H8.28788H8.24044H8.19294H8.14544H8.09769H8.05019H8.00275H7.95531H7.90756H7.86006H7.81256H7.76513H7.71738H7.66988H7.62238H7.575H7.5275H7.47975H7.43225V19.7916V19.8346V19.8825V19.9301V19.9779V20.0209V20.0686V20.1164V20.1641V20.2071V20.2549V20.3026V20.3504V20.3934V20.4411H7.47975H7.52269H7.57019H7.61763H7.66519H7.70806H7.75556H7.803H7.8505H7.8935H7.94094H7.98844H8.03594H8.07888H8.12638V20.4889V20.5366V20.5844V20.6321V20.6847V20.7324V20.7802V20.8279V20.8756L8.08838 20.8996L8.055 20.9186L8.01231 20.9378L7.97413 20.9569L7.93138 20.976L7.88869 20.9855L7.84125 20.9998L7.7935 21.0093L7.746 21.0189L7.69856 21.0237L7.64631 21.0285L7.59375 21.0333H7.53675H7.4845L7.43225 21.0285L7.38475 21.0237L7.33731 21.0142L7.28956 21.0046L7.24206 20.9903L7.19456 20.976L7.15163 20.9569L7.109 20.9378L7.06619 20.9186L7.028 20.8948L6.99013 20.8709L6.95225 20.8423L6.914 20.8136L6.88088 20.785L6.85219 20.7515L6.81906 20.7181L6.79038 20.6847L6.762 20.6465L6.73813 20.6083L6.71431 20.5701L6.69069 20.5271L6.67163 20.484L6.6525 20.4363L6.63844 20.3981L6.62413 20.3551L6.61456 20.3122L6.605 20.2692L6.59544 20.2263L6.59069 20.1785L6.58594 20.1355L6.58144 20.0878V20.04V20.0305V19.9779L6.58594 19.9301L6.59069 19.8825L6.60025 19.8298L6.60981 19.787L6.61931 19.7394L6.63363 19.6917L6.6525 19.6487L6.66681 19.6057L6.68588 19.5628L6.70981 19.5245L6.73338 19.4816L6.75725 19.4434L6.78088 19.4099L6.8095 19.3717L6.84263 19.3383L6.87131 19.3049L6.90444 19.2762L6.93788 19.2476L6.971 19.219L7.00925 19.1951L7.04713 19.1711L7.08531 19.1473L7.12806 19.1282L7.17075 19.1091L7.21344 19.0948L7.25644 19.0805L7.29913 19.0709L7.34656 19.0614L7.38956 19.0566L7.437 19.0518H7.4845H7.53675L7.58925 19.0566L7.6415 19.0614L7.689 19.0661L7.7365 19.0756L7.78394 19.0852L7.82694 19.0948L7.86956 19.1091L7.91231 19.1234L7.9505 19.1378L7.98844 19.1569L8.02663 19.176L8.06925 19.1998L8.10725 19.2236L8.14544 19.2476L8.18338 19.2715L8.22131 19.3001L8.2595 19.324L8.29738 19.3574L8.33556 19.3861L8.364 19.3479L8.39738 19.3144L8.42581 19.2762L8.45919 19.238L8.48756 19.1998L8.51619 19.1664L8.54938 19.1282L8.578 19.09L8.61119 19.0518L8.63981 19.0183L8.66819 18.9801L8.70163 18.942L8.73 18.9086L8.75869 18.8703L8.79181 18.8321L8.82044 18.794L8.85356 18.7605L8.88225 18.7223L8.84431 18.6936L8.80613 18.6602L8.76819 18.6316L8.73 18.6029L8.69206 18.579L8.65419 18.5504L8.61119 18.5265L8.57325 18.5026L8.53056 18.4788L8.49238 18.4549L8.44969 18.4358L8.40694 18.4119L8.364 18.3928L8.32131 18.3736L8.27863 18.3546L8.23563 18.3403L8.19769 18.326L8.155 18.3164L8.11206 18.3021L8.06925 18.2925L8.02663 18.283L7.98369 18.2735L7.93619 18.2639L7.88869 18.2543L7.84575 18.2496L7.7935 18.24L7.746 18.2353H7.69856L7.64631 18.2305L7.59375 18.2256H7.5415H7.48925H7.44181H7.38956L7.34181 18.2305L7.29425 18.2353L7.24688 18.24L7.19938 18.2448L7.15163 18.2543L7.10413 18.2591L7.05669 18.2686L7.01394 18.283L6.96625 18.2925L6.92356 18.3068L6.88088 18.3164L6.83788 18.3355L6.79038 18.3499L6.7525 18.3641L6.705 18.3881L6.66206 18.4071L6.61931 18.4263L6.57669 18.4501L6.53369 18.474L6.49094 18.4979L6.45306 18.5218L6.41481 18.5456L6.37694 18.5743L6.33875 18.5981L6.30081 18.6268L6.26763 18.6555L6.22943 18.6889L6.1963 18.7175L6.1629 18.751L6.12972 18.7843L6.10106 18.8178L6.06793 18.8512L6.03928 18.8847L6.01089 18.9229L5.98223 18.9611L5.95389 18.9993L5.92998 19.0375L5.90617 19.0756L5.88252 19.1139L5.85866 19.1521L5.8348 19.1951L5.81599 19.238L5.79687 19.281L5.7778 19.324L5.75895 19.367L5.73983 19.4147L5.7255 19.4577L5.71117 19.5055L5.69716 19.5484L5.68758 19.5962L5.67325 19.6439L5.66371 19.6869L5.65897 19.7346L5.64944 19.7821L5.64459 19.8346L5.64012 19.8825V19.9301L5.63538 19.9826V20.0305V20.04V20.0878V20.1403L5.64012 20.188L5.64459 20.2358L5.64944 20.2836L5.65413 20.3265L5.66371 20.3743L5.66851 20.4173L5.67804 20.465L5.69237 20.508L5.7019 20.5558L5.71596 20.5986L5.7255 20.6416L5.74462 20.6847L5.75895 20.7229L5.7778 20.7658L5.79687 20.8088L5.81599 20.8518L5.8348 20.8948L5.85866 20.933L5.88252 20.976L5.90617 21.0142L5.92998 21.0523L5.95837 21.0906L5.98223 21.1288L6.01089 21.1622L6.03928 21.2004L6.06793 21.2338L6.10106 21.2673L6.13451 21.3007L6.16764 21.3293L6.20109 21.3628L6.23422 21.3914L6.26763 21.4201L6.30563 21.4487L6.3435 21.4773L6.38169 21.506L6.41963 21.5298L6.45781 21.5538L6.50056 21.5776L6.53844 21.6013L6.58144 21.6251L6.62413 21.6443L6.66681 21.6633L6.70981 21.6824L6.75725 21.7015L6.79994 21.7158L6.84263 21.7349L6.88563 21.7493L6.93313 21.7588L6.97581 21.7731L7.02356 21.7827L7.06619 21.7922L7.11369 21.8018L7.16119 21.8113L7.20894 21.8161L7.25644 21.8209L7.30388 21.8256L7.35613 21.8305L7.40356 21.8352H7.45138H7.50356H7.55588H7.60813L7.66031 21.8305L7.70806 21.8256L7.76031 21.8209L7.80781 21.8161L7.86006 21.8113L7.90756 21.8065L7.95531 21.797L8.00275 21.7875L8.04544 21.778L8.09325 21.7684L8.13588 21.754L8.18338 21.7398L8.22606 21.7254L8.269 21.711L8.31181 21.6967L8.35444 21.6776L8.40225 21.6585L8.44488 21.6394L8.49238 21.6203L8.53506 21.5964L8.578 21.5776L8.62069 21.5538L8.66344 21.5298L8.70644 21.506L8.74431 21.4821L8.7825 21.4583L8.82044 21.4296L8.85838 21.4057L8.89656 21.3771L8.92975 21.3531ZM23.9586 20.8614L23.9633 20.8136L23.9681 20.7611V20.7085V20.699V20.6465L23.9633 20.594L23.9586 20.5462L23.949 20.4985L23.9395 20.4506L23.9299 20.4076L23.9159 20.3647L23.9016 20.3218L23.8825 20.2836L23.8586 20.2405L23.835 20.2023L23.8063 20.1594L23.7779 20.1211L23.7446 20.0878L23.7114 20.0495L23.6732 20.0161L23.6353 19.9826L23.5973 19.9588L23.5591 19.9301L23.5212 19.9063L23.4786 19.8825L23.4356 19.8585L23.3881 19.8346L23.3406 19.8156L23.2931 19.7916L23.2406 19.7729L23.1979 19.7585L23.1553 19.7442L23.1074 19.7299L23.0648 19.7156L23.0173 19.7012L22.9698 19.6869L22.922 19.6774L22.8698 19.663L22.8223 19.6487L22.7701 19.6391L22.7179 19.6248L22.6656 19.6105L22.6131 19.5962L22.5656 19.5866L22.5229 19.5723L22.4799 19.5628L22.442 19.5484L22.4041 19.5389L22.3471 19.5198L22.2945 19.5007L22.2471 19.4816L22.2091 19.4577L22.1662 19.4338L22.133 19.4004L22.1139 19.3717L22.0904 19.3192L22.0855 19.2571V19.2476L22.0904 19.1998L22.1091 19.1569L22.1378 19.1139L22.1805 19.0756L22.2139 19.0566L22.2519 19.0375L22.2945 19.0279L22.3423 19.0183L22.3946 19.0088H22.4516H22.4991L22.5417 19.0136L22.5895 19.0183L22.6369 19.0231L22.6844 19.0327L22.7319 19.0423L22.7796 19.0518L22.8271 19.0661L22.8746 19.0805L22.9269 19.0948L22.9651 19.1139L23.0078 19.1282L23.0456 19.1473L23.0886 19.1664L23.1266 19.1855L23.1693 19.2046L23.2075 19.2285L23.2501 19.2476L23.2883 19.2762L23.3263 19.3001L23.3689 19.324L23.4072 19.3526L23.4356 19.3144L23.4594 19.2762L23.4878 19.238L23.5164 19.1998L23.5448 19.1569L23.5687 19.1187L23.5973 19.0805L23.6258 19.0423L23.6496 19.0041L23.6779 18.9658L23.7066 18.9276L23.7305 18.8895L23.7589 18.8465L23.7875 18.8083L23.8159 18.7701L23.8398 18.7319L23.8681 18.6936L23.8302 18.665L23.7923 18.6364L23.7541 18.6076L23.7161 18.5838L23.6732 18.5552L23.6353 18.5313L23.5926 18.5074L23.5496 18.4836L23.5117 18.4645L23.4689 18.4406L23.4213 18.4215L23.3785 18.4023L23.3358 18.3833L23.2931 18.369L23.2454 18.3499L23.2027 18.3403L23.1599 18.326L23.1123 18.3116L23.0695 18.3021L23.0221 18.2925L22.9746 18.283L22.9316 18.2735L22.8841 18.2639L22.8319 18.2591L22.7844 18.2496L22.7319 18.2448H22.6844L22.6322 18.24L22.5799 18.2353H22.5277H22.4754H22.4229H22.3754L22.328 18.24L22.2805 18.2448L22.2327 18.2496L22.1853 18.2543L22.1426 18.2639L22.0951 18.2735L22.0522 18.283L22.0094 18.2925L21.9715 18.3021L21.9285 18.3164L21.8811 18.3355L21.8336 18.3499L21.7906 18.369L21.7479 18.3928L21.7052 18.4119L21.6623 18.4358L21.6244 18.4596L21.5864 18.4883L21.5482 18.517L21.5151 18.5408L21.4769 18.5743L21.4437 18.6125L21.4103 18.6459L21.3772 18.6841L21.3484 18.7223L21.3201 18.7605L21.2963 18.8035L21.2726 18.8465L21.2536 18.8895L21.2344 18.9324L21.2156 18.9754L21.2061 19.0183L21.1918 19.0614L21.1822 19.1043L21.1726 19.1473L21.1678 19.1951L21.1631 19.238L21.1583 19.2858V19.3335V19.3431V19.3956L21.1631 19.4481L21.1678 19.4959L21.1726 19.5436L21.1822 19.5866L21.1918 19.6344L21.2061 19.6726L21.2201 19.7156L21.2344 19.7538L21.2536 19.787L21.2774 19.8298L21.301 19.8681L21.3249 19.9015L21.3533 19.9349L21.3819 19.9683L21.4151 20.0018L21.4485 20.0352L21.4816 20.0639L21.5198 20.0878L21.5578 20.1164L21.6004 20.1403L21.6386 20.1641L21.6861 20.188L21.7288 20.2119L21.7766 20.231L21.8241 20.2501L21.8715 20.2692L21.9237 20.2883L21.9668 20.3026L22.0094 20.317L22.0522 20.3313L22.0996 20.3409L22.1426 20.3551L22.1901 20.3695L22.2375 20.3791L22.2852 20.3934L22.3327 20.4029L22.385 20.4173L22.4325 20.4268L22.4847 20.4411L22.5324 20.4506L22.5799 20.465L22.6226 20.4745L22.6656 20.4889L22.7035 20.4985L22.7367 20.508L22.7937 20.5318L22.8414 20.551L22.8841 20.5701L22.922 20.5891L22.9603 20.6178L22.9934 20.6465L23.0173 20.6798L23.0364 20.7276L23.0411 20.785V20.7945L23.0364 20.8423L23.0221 20.8852L23.0029 20.9234L22.9746 20.9569L22.9364 20.9855L22.9032 21.0046L22.8651 21.0189L22.8223 21.0285L22.7796 21.038L22.7319 21.0476L22.6796 21.0523H22.6226H22.5751L22.5229 21.0476H22.4754L22.4277 21.038L22.3754 21.0333L22.328 21.0237L22.2805 21.0142L22.2327 21.0046L22.1901 20.9903L22.1426 20.976L22.0951 20.9616L22.0522 20.9425L22.0094 20.9282L21.9668 20.9091L21.9237 20.89L21.8811 20.8709L21.8432 20.847L21.8001 20.8279L21.7623 20.804L21.7196 20.7754L21.6814 20.7515L21.6386 20.7229L21.6004 20.6942L21.5578 20.6656L21.5198 20.6369L21.4911 20.6751L21.458 20.7085L21.4294 20.7468L21.3963 20.785L21.3676 20.8183L21.3392 20.8566L21.3058 20.8948L21.2774 20.9282L21.2439 20.9664L21.2156 20.9998L21.1822 21.038L21.1538 21.0762L21.1252 21.1096L21.092 21.1478L21.0633 21.1861L21.0302 21.2195L21.0016 21.2577L21.0394 21.2911L21.0729 21.3198L21.1108 21.3484L21.1491 21.3771L21.1869 21.4057L21.2249 21.4344L21.2631 21.4583L21.301 21.4821L21.344 21.506L21.3819 21.5298L21.4246 21.5538L21.4676 21.5729L21.5103 21.5964L21.553 21.6155L21.5959 21.6346L21.6434 21.6538L21.6861 21.6681L21.7336 21.6824L21.7766 21.7015L21.8241 21.7158L21.8715 21.7301L21.9143 21.7398L21.9619 21.754L22.0094 21.7636L22.0569 21.7731L22.1044 21.7827L22.1521 21.7922L22.1996 21.797L22.2471 21.8065L22.2993 21.8113L22.3471 21.8161L22.3946 21.8209H22.4468L22.4943 21.8256H22.5417H22.5942H22.6465H22.6939L22.7414 21.8209L22.7937 21.8161L22.8414 21.8113L22.8841 21.8065L22.9316 21.8018L22.9794 21.7922L23.0221 21.7827L23.0648 21.7731L23.1123 21.7636L23.1553 21.7493L23.2027 21.7349L23.2501 21.7206L23.2976 21.7015L23.3454 21.6824L23.3881 21.6585L23.4308 21.6394L23.4738 21.6155L23.5117 21.5869L23.5496 21.5633L23.5877 21.5347L23.6209 21.506L23.6591 21.4726L23.6875 21.4439L23.7209 21.4105L23.7493 21.3771L23.7732 21.3389L23.8016 21.3007L23.8254 21.2625L23.8493 21.2243L23.8681 21.1813L23.8873 21.1431L23.9063 21.1001L23.9207 21.0523L23.9299 21.0093L23.9442 20.9616L23.9538 20.9138L23.9586 20.8614ZM20.5816 21.7684H20.6293H20.6769V21.7206V21.6776V21.6298V21.5821V21.5347V21.4916V21.4439V21.3962V21.3531V21.3055V21.2577V21.2147V21.167V21.1192V21.0715V21.0285V20.9807H20.6293H20.5816H20.5341H20.4867H20.4393H20.3914H20.3439H20.2966H20.2491H20.1965H20.1491H20.1016H20.0541H20.0063H19.9589H19.9114H19.8639H19.8162H19.7687H19.7213H19.6738H19.6263H19.5786H19.5311H19.4836H19.4361H19.3883H19.3409H19.2934H19.2412H19.1934H19.1459H19.0985H19.051H19.0033H18.9558H18.9083H18.8608H18.8131V20.933V20.8805V20.8326V20.785V20.7324V20.6847V20.6369V20.5844V20.5366V20.4889V20.4363V20.3886H18.8608H18.9083H18.9558H19.0033H19.051H19.0985H19.1459H19.1934H19.2364H19.2839H19.3314H19.3788H19.4266H19.4741H19.5216H19.5689H19.6168H19.6642H19.7117H19.7592H19.8069H19.8544H19.9019H19.9494H19.9971H20.0446H20.0873H20.1348H20.1824H20.2299H20.2774H20.3249H20.3726H20.4201H20.4676V20.3409V20.2978V20.2501V20.2023V20.1594V20.1116V20.0639V20.0161V19.9731V19.9253V19.8776V19.8346V19.787V19.7394V19.6965V19.6487H20.4201H20.3726H20.3249H20.2774H20.2299H20.1824H20.1348H20.0873H20.0446H19.9971H19.9494H19.9019H19.8544H19.8069H19.7592H19.7117H19.6642H19.6168H19.5689H19.5216H19.4741H19.4266H19.3788H19.3314H19.2839H19.2364H19.1934H19.1459H19.0985H19.051H19.0033H18.9558H18.9083H18.8608H18.8131V19.601V19.5532V19.5055V19.4577V19.4099V19.3622V19.3192V19.2715V19.2236V19.176V19.1282V19.0805H18.8608H18.9083H18.9558H19.0033H19.051H19.0985H19.1411H19.1886H19.2364H19.2839H19.3314H19.3788H19.4266H19.4741H19.5216H19.5689H19.6168H19.6642H19.7117H19.7544H19.8021H19.8496H19.8971H19.9445H19.9923H20.0398H20.0873H20.1348H20.1824H20.2299H20.2774H20.3249H20.3679H20.4153H20.4628H20.5103H20.558H20.6055H20.653V19.0327V18.9897V18.942V18.8942V18.8465V18.8035V18.7557V18.708V18.665V18.6173V18.5695V18.5265V18.4788V18.431V18.3833V18.3403V18.2925H20.6055H20.558H20.5103H20.4628H20.4153H20.3679H20.3201H20.2726H20.2252H20.1777H20.13H20.0825H20.035H19.9876H19.9445H19.8971H19.8496H19.8021H19.7544H19.7069H19.6594H19.612H19.5642H19.5167H19.4693H19.4218H19.3743H19.3266H19.2791H19.2316H19.1842H19.1364H19.0889H19.0414H18.994H18.9463H18.8988H18.8513H18.8038H18.7561H18.7086H18.6611H18.6136H18.5707H18.5232H18.4758H18.4283H18.3806H18.333H18.2856H18.2381H18.1903H18.1429H18.0954H18.0479H18.0003H17.9527H17.9053V18.3403V18.3881V18.4358V18.4836V18.5313V18.579V18.6268V18.6746V18.7223V18.7701V18.8178V18.8656V18.9133V18.9611V19.0088V19.0566V19.1043V19.1521V19.1951V19.2428V19.2906V19.3383V19.3861V19.4338V19.4816V19.5293V19.5771V19.6248V19.6726V19.7203V19.7681V19.8156V19.8633V19.9111V19.9588V20.0065V20.0543V20.102V20.1498V20.1976V20.2453V20.2931V20.3409V20.3886V20.4363V20.484V20.5318V20.5796V20.6273V20.6751V20.7229V20.7706V20.8183V20.8661V20.9091V20.9569V21.0046V21.0523V21.1001V21.1478V21.1956V21.2434V21.2911V21.3389V21.3866V21.4344V21.4821V21.5298V21.5776V21.6251V21.6728V21.7206V21.7684H17.9527H18.0003H18.0479H18.0954H18.1429H18.1903H18.2381H18.2856H18.333H18.3853H18.4328H18.4805H18.5279H18.5755H18.6229H18.6707H18.7182H18.7656H18.8131H18.8608H18.9083H18.9558H19.0033H19.051H19.0985H19.1459H19.1934H19.2412H19.2934H19.3409H19.3883H19.4361H19.4836H19.5311H19.5786H19.6263H19.6738H19.7213H19.7687H19.8162H19.8639H19.9114H19.9589H20.0063H20.0541H20.1016H20.1491H20.1965H20.2491H20.2966H20.3439H20.3914H20.4393H20.4867H20.5341H20.5816ZM17.1558 21.7684H17.1083H17.0608H17.0084H16.9609H16.9134H16.8659H16.8181H16.7707H16.7184H16.671H16.6234H16.5758H16.5283H16.4808H16.4286H16.3808H16.3333H16.2858V21.7206V21.6728V21.6251V21.5773V21.5293V21.4816V21.4338V21.386V21.3383V21.2906V21.2428V21.1948V21.147V21.0993V21.0515V21.0038V20.9557V20.9079V20.8602V20.8125V20.7647V20.717V20.669V20.6212V20.5734V20.5256V20.4779V20.4301V20.3821V20.3343V20.2866V20.2389V20.1911V20.1434V20.0953V20.0476V19.9998V19.9521V19.9043V19.8563V19.8086V19.7608V19.713L16.262 19.7512L16.2336 19.7945L16.2097 19.8327L16.1814 19.8709L16.1575 19.9138L16.1288 19.9521L16.1053 19.9903L16.0813 20.0335L16.053 20.0717L16.0291 20.1099L16.0005 20.1481L15.9769 20.1914L15.9483 20.2296L15.9246 20.2678L15.9008 20.3108L15.8721 20.3492L15.8485 20.3875L15.8198 20.4304L15.7963 20.4686L15.7676 20.5068L15.744 20.5501L15.7201 20.5883L15.6915 20.6265L15.6679 20.6695L15.6393 20.708L15.6156 20.7461L15.587 20.7844L15.5631 20.8273L15.5395 20.8658L15.5109 20.904L15.4873 20.947L15.4586 20.9852L15.4348 21.0234L15.4064 21.0667L15.3825 21.1049H15.3637L15.3351 21.0619L15.3111 21.0234L15.2828 20.9804L15.2589 20.9422L15.2305 20.8993L15.2066 20.8608L15.1783 20.8178L15.1544 20.7796L15.1258 20.7366L15.1021 20.6985L15.0735 20.6551L15.0499 20.617L15.0213 20.574L14.9974 20.5358L14.969 20.4925L14.9451 20.4543L14.9168 20.4113L14.8881 20.3731L14.8643 20.3299L14.8359 20.2917L14.812 20.2487L14.7836 20.2105L14.7598 20.1672L14.7314 20.129L14.7075 20.0861L14.6789 20.0479L14.6553 20.0049L14.6266 19.9664L14.603 19.9235L14.5744 19.8852L14.5505 19.8422L14.5221 19.8041L14.4982 19.7608L14.4698 19.7226V19.7703V19.8181V19.8659V19.9138V19.9616V20.0093V20.0571V20.1049V20.1529V20.2007V20.2436V20.2914V20.3391V20.3869V20.435V20.4827V20.5305V20.5781V20.626V20.6737V20.7217V20.7695V20.8173V20.865V20.9128V20.9605V21.0085V21.0563V21.104V21.1518V21.1995V21.2475V21.2906V21.3383V21.386V21.4338V21.4816V21.5293V21.5773V21.6251V21.6728V21.7206V21.7684H14.4224H14.3747H14.3271H14.2797H14.2323H14.1845H14.137H14.0896H14.042H13.9943H13.9468H13.8993H13.8519H13.8041H13.7567H13.7092H13.6617H13.6139H13.5665V21.7206V21.6728V21.6251V21.5776V21.5298V21.4821V21.4344V21.3866V21.3389V21.2911V21.2434V21.1956V21.1478V21.1001V21.0523V21.0046V20.9569V20.9091V20.8661V20.8183V20.7706V20.7229V20.6751V20.6273V20.5796V20.5318V20.484V20.4363V20.3886V20.3409V20.2931V20.2453V20.1976V20.1498V20.102V20.0543V20.0065V19.9588V19.9111V19.8633V19.8156V19.7681V19.7203V19.6726V19.6248V19.5771V19.5293V19.4816V19.4338V19.3861V19.3383V19.2906V19.2428V19.1951V19.1521V19.1043V19.0566V19.0088V18.9611V18.9133V18.8656V18.8178V18.7701V18.7223V18.6746V18.6268V18.579V18.5313V18.4836V18.4358V18.3881V18.3403V18.2925H13.6139H13.6617H13.7044H13.7518H13.7994H13.8471H13.8898H13.9373H13.9851H14.0325H14.0752H14.1227H14.1704H14.2179H14.2606H14.308H14.3558H14.4033H14.446H14.4934H14.5412L14.5648 18.3308L14.5887 18.3736L14.617 18.4116L14.6409 18.4546L14.6648 18.4928L14.6884 18.5358L14.7123 18.5737L14.7407 18.6167L14.7645 18.6549L14.7884 18.6931L14.812 18.7358L14.8359 18.774L14.8643 18.817L14.8881 18.8552L14.912 18.8978L14.9356 18.936L14.9643 18.9742L14.9881 19.017L15.0117 19.0551L15.0356 19.0981L15.0592 19.1363L15.0879 19.179L15.1118 19.2173L15.1353 19.2602L15.1592 19.2981L15.1828 19.3363L15.2114 19.3793L15.2353 19.4175L15.2589 19.4605L15.2828 19.4985L15.3064 19.5415L15.3351 19.5796L15.3589 19.6223L15.3825 19.6605L15.4064 19.6223L15.4303 19.5796L15.4586 19.5415L15.4824 19.4985L15.5061 19.4605L15.5299 19.4175L15.5583 19.3793L15.5822 19.3363L15.6061 19.2981L15.6297 19.2602L15.6583 19.2173L15.6819 19.179L15.7058 19.1363L15.7296 19.0981L15.758 19.0551L15.7819 19.017L15.8058 18.9742L15.8294 18.936L15.8533 18.8978L15.8816 18.8552L15.9055 18.817L15.9294 18.774L15.953 18.7358L15.9816 18.6931L16.0053 18.6549L16.0291 18.6167L16.053 18.5737L16.0813 18.5358L16.1053 18.4928L16.1288 18.4546L16.1527 18.4116L16.1814 18.3736L16.2049 18.3308L16.2288 18.2925H16.2763H16.3238H16.3668H16.4143H16.4617H16.5092H16.5521H16.5996H16.6471H16.6946H16.7376H16.785H16.8325H16.88H16.9229H16.9704H17.0179H17.0653H17.1083H17.1558H17.2033V18.3403V18.3881V18.4358V18.4836V18.5313V18.579V18.6268V18.6746V18.7223V18.7701V18.8178V18.8656V18.9133V18.9611V19.0088V19.0566V19.1043V19.1521V19.1951V19.2428V19.2906V19.3383V19.3861V19.4338V19.4816V19.5293V19.5771V19.6248V19.6726V19.7203V19.7681V19.8156V19.8633V19.9111V19.9588V20.0065V20.0543V20.102V20.1498V20.1976V20.2453V20.2931V20.3409V20.3886V20.4363V20.484V20.5318V20.5796V20.6273V20.6751V20.7229V20.7706V20.8183V20.8661V20.9091V20.9569V21.0046V21.0523V21.1001V21.1478V21.1956V21.2434V21.2911V21.3389V21.3866V21.4344V21.4821V21.5298V21.5776V21.6251V21.6728V21.7206V21.7684H17.1558ZM11.6255 20.2928L11.6398 20.3361L11.6589 20.3791H11.6114H11.5637H11.5163H11.4688H11.4213H11.3738H11.3261H11.2786H11.2359H11.1881H11.1406H11.0932H11.0457H10.998H10.9505H10.903H10.8556L10.8744 20.3361L10.8887 20.2928L10.9078 20.2451L10.9269 20.2021L10.9409 20.1588L10.96 20.1158L10.9791 20.0681L10.998 20.0248L11.0123 19.9818L11.0314 19.9389L11.0504 19.8956L11.0645 19.8478L11.0836 19.8049L11.1027 19.7616L11.1171 19.7186L11.1359 19.6756L11.155 19.6276L11.1741 19.5846L11.1881 19.5417L11.2073 19.4985L11.2264 19.4506L11.2407 19.4074L11.2594 19.3645L11.2786 19.4074L11.2929 19.4506L11.3117 19.4985L11.3308 19.5417L11.3452 19.5846L11.3643 19.6276L11.3831 19.6756L11.3974 19.7186L11.4165 19.7616L11.4356 19.8049L11.4496 19.8478L11.4688 19.8956L11.4831 19.9389L11.5019 19.9818L11.521 20.0248L11.5354 20.0681L11.5544 20.1158L11.5733 20.1588L11.5876 20.2021L11.6067 20.2451L11.6255 20.2928ZM13.1328 21.7684H13.0851H13.0423H12.9949H12.9471H12.8997H12.8522H12.8095H12.7617H12.7143H12.6668H12.6193H12.5716H12.5289H12.4814H12.4339H12.3861H12.3387H12.296H12.2485H12.2008L12.1819 21.7254L12.1676 21.6824L12.1486 21.6394L12.1294 21.5916L12.1154 21.549L12.0963 21.506L12.0772 21.463L12.0631 21.4201L12.0441 21.3771L12.0249 21.3341L12.0106 21.2911L11.9918 21.2434L11.9727 21.2004L11.9583 21.1574L11.9392 21.1145H11.8918H11.8443H11.7968H11.7494H11.7064H11.6589H11.6114H11.5637H11.5163H11.4688H11.4213H11.3738H11.3261H11.2786H11.2359H11.1881H11.1406H11.0932H11.0457H10.998H10.9505H10.903H10.8556H10.8081H10.7651H10.7177H10.6701H10.6224H10.5749L10.5561 21.1574L10.5418 21.2004L10.5227 21.2434L10.5036 21.2911L10.4896 21.3341L10.4704 21.3771L10.4513 21.4201L10.437 21.463L10.4182 21.506L10.3991 21.549L10.3848 21.5916L10.3659 21.6394L10.3468 21.6824L10.3325 21.7254L10.3134 21.7684H10.2659H10.2185H10.171H10.1233H10.0758H10.0235H9.97606H9.92856H9.88081H9.83338H9.78594H9.73838H9.69063H9.64325H9.59575H9.5435H9.49575H9.44825H9.40075H9.35331L9.37213 21.7254L9.39125 21.6824L9.41031 21.6394L9.42913 21.5916L9.4435 21.549L9.46263 21.506L9.48169 21.463L9.5005 21.4201L9.51963 21.3771L9.53869 21.3293L9.5575 21.2863L9.57663 21.2434L9.59094 21.2004L9.61006 21.1574L9.62881 21.1145L9.64794 21.0667L9.667 21.0237L9.68588 20.9807L9.705 20.9378L9.72406 20.8948L9.73838 20.8518L9.75719 20.804L9.77631 20.7611L9.79544 20.7181L9.81425 20.6751L9.83338 20.6321L9.8525 20.5891L9.87131 20.5413L9.88563 20.4985L9.90475 20.4555L9.92381 20.4125L9.94269 20.3695L9.96175 20.3265L9.98081 20.2788L9.99969 20.2358L10.0188 20.1928L10.0331 20.1498L10.0522 20.1069L10.071 20.0639L10.0901 20.0161L10.1093 19.9731L10.128 19.9301L10.1471 19.8871L10.1663 19.8443L10.1806 19.8012L10.1994 19.7585L10.2185 19.7108L10.2376 19.6678L10.2564 19.6248L10.2754 19.5818L10.2946 19.5389L10.3134 19.4959L10.3277 19.4481L10.3468 19.4052L10.3659 19.3622L10.3848 19.3192L10.4039 19.2762L10.4229 19.2333L10.4418 19.1855L10.4609 19.1425L10.4752 19.0996L10.4943 19.0566L10.5131 19.0136L10.5322 18.9706L10.5513 18.9229L10.5701 18.8799L10.5893 18.8369L10.6084 18.794L10.6224 18.751L10.6415 18.708L10.6606 18.6602L10.6798 18.6173L10.6986 18.5743L10.7177 18.5313L10.7368 18.4883L10.7556 18.4454L10.7699 18.3976L10.789 18.3546L10.8081 18.3116L10.8269 18.2686H10.8744H10.9174H10.9648H11.0123H11.0601H11.1027H11.1502H11.1977H11.2454H11.2882H11.3356H11.3831H11.4308H11.4735H11.521H11.5684H11.6163H11.6589H11.7064L11.7254 18.3116L11.7446 18.3546L11.7634 18.3976L11.7825 18.4454L11.7968 18.4883L11.8156 18.5313L11.8348 18.5743L11.8538 18.6173L11.8729 18.6602L11.8918 18.708L11.9109 18.751L11.93 18.794L11.944 18.8369L11.9631 18.8799L11.9823 18.9229L12.0014 18.9706L12.0202 19.0136L12.0393 19.0566L12.0584 19.0996L12.0772 19.1425L12.0915 19.1855L12.1106 19.2333L12.1294 19.2762L12.1486 19.3192L12.1676 19.3622L12.1868 19.4052L12.2056 19.4481L12.2246 19.4959L12.239 19.5389L12.2578 19.5818L12.2769 19.6248L12.296 19.6678L12.3151 19.7108L12.3339 19.7585L12.353 19.8012L12.3721 19.8443L12.3861 19.8871L12.4053 19.9301L12.4244 19.9731L12.4432 20.0161L12.4623 20.0639L12.4814 20.1069L12.5005 20.1498L12.5193 20.1928L12.5336 20.2358L12.5527 20.2788L12.5716 20.3265L12.5906 20.3695L12.6098 20.4125L12.6288 20.4555L12.6477 20.4985L12.6668 20.5413L12.6811 20.5891L12.6999 20.6321L12.719 20.6751L12.7381 20.7181L12.7569 20.7611L12.7761 20.804L12.7952 20.8518L12.8143 20.8948L12.8283 20.9378L12.8474 20.9807L12.8666 21.0237L12.8854 21.0667L12.9044 21.1145L12.9236 21.1574L12.9426 21.2004L12.9614 21.2434L12.9758 21.2863L12.9949 21.3293L13.0137 21.3771L13.0328 21.4201L13.0519 21.463L13.0707 21.506L13.0898 21.549L13.1089 21.5916L13.1233 21.6394L13.142 21.6824L13.1611 21.7254L13.1802 21.7684H13.1328Z" fill="white"/>
<path d="M7.43875 10.4279H9.49919V8.83407H7.43875V5.5804H9.58119V3.98663H5.68909V15.4891H9.61381V13.8953H7.43875V10.4279Z" fill="white"/>
<path d="M22.1966 10.7731V13.3694C22.1966 13.8296 21.9839 14.043 21.5426 14.043H21.2154C20.7576 14.043 20.5449 13.8296 20.5449 13.3694V6.10623C20.5449 5.64614 20.7576 5.43266 21.2154 5.43266H21.5098C21.9513 5.43266 22.164 5.64614 22.164 6.10623V8.35765H23.8808V6.00764C23.8808 4.57819 23.194 3.888 21.7716 3.888H20.921C19.4986 3.888 18.7952 4.59449 18.7952 6.02421V13.4515C18.7952 14.8812 19.4986 15.5877 20.921 15.5877H21.7878C23.2106 15.5877 23.9136 14.8812 23.9136 13.4515V10.7731H22.1966Z" fill="white"/>
<path d="M16.1206 15.4892H17.8706V3.98676H16.1206V15.4892Z" fill="white"/>
<path fill-rule="evenodd" clip-rule="evenodd" d="M10.4584 3.98657H13.2056C14.6283 3.98657 15.3314 4.69307 15.3314 6.12277V9.1793C15.3314 10.6087 14.6283 11.3152 13.2056 11.3152H12.2081V15.489H10.4584V3.98657ZM12.9277 9.7708C13.3693 9.7708 13.5817 9.55705 13.5817 9.09692V6.2048C13.5817 5.74476 13.3693 5.53123 12.9277 5.53123H12.2081V9.7708H12.9277Z" fill="white"/>
<path fill-rule="evenodd" clip-rule="evenodd" d="M9.81688 25.8897H19.8334L14.7208 27.5757L9.81688 25.8897Z" fill="white"/>
</svg>
