<svg width="20" height="21" viewBox="0 0 20 21" fill="none" xmlns="http://www.w3.org/2000/svg">
<g clip-path="url(#clip0_578_270)">
<path d="M19.9905 10.6602C19.9905 9.82164 19.9224 9.20968 19.7752 8.57507H10.1992V12.3601H15.8201C15.7068 13.3007 15.0948 14.7173 13.7349 15.6691L13.7159 15.7959L16.7436 18.1414L16.9534 18.1623C18.8798 16.3831 19.9905 13.7653 19.9905 10.6602Z" fill="#4285F4"/>
<path d="M10.1992 20.6328C12.953 20.6328 15.2648 19.7262 16.9534 18.1624L13.7349 15.6692C12.8737 16.2698 11.7177 16.6891 10.1992 16.6891C7.50211 16.6891 5.21297 14.9099 4.39695 12.4508L4.27734 12.461L1.12906 14.8974L1.08789 15.0119C2.76508 18.3436 6.21016 20.6328 10.1992 20.6328Z" fill="#34A853"/>
<path d="M4.39695 12.4508C4.18164 11.8161 4.05703 11.1361 4.05703 10.4336C4.05703 9.73092 4.18164 9.05099 4.38562 8.41638L4.37992 8.28123L1.19219 5.8056L1.08789 5.85521C0.396641 7.23779 0 8.79037 0 10.4336C0 12.0768 0.396641 13.6293 1.08789 15.0119L4.39695 12.4508Z" fill="#FBBC05"/>
<path d="M10.1992 4.17805C12.1144 4.17805 13.4062 5.00531 14.1429 5.69664L17.0213 2.88617C15.2535 1.24297 12.953 0.234375 10.1992 0.234375C6.21016 0.234375 2.76508 2.52352 1.08789 5.85523L4.38563 8.41641C5.21297 5.95727 7.50211 4.17805 10.1992 4.17805Z" fill="#EB4335"/>
</g>
<defs>
<clipPath id="clip0_578_270">
<rect width="20" height="20.4688" fill="white" transform="translate(0 0.234375)"/>
</clipPath>
</defs>
</svg>
